<?xml version="1.0" encoding="utf-8"?>
<!-- Generator: Adobe Illustrator 16.0.0, SVG Export Plug-In . SVG Version: 6.00 Build 0)  -->
<!DOCTYPE svg PUBLIC "-//W3C//DTD SVG 1.1//EN" "http://www.w3.org/Graphics/SVG/1.1/DTD/svg11.dtd">
<svg version="1.1" id="Layer_1" xmlns="http://www.w3.org/2000/svg" xmlns:xlink="http://www.w3.org/1999/xlink" x="0px" y="0px"
	 width="582.42px" height="162.643px" viewBox="0 0 582.42 162.643" enable-background="new 0 0 582.42 162.643"
	 xml:space="preserve">
<g>
	<path fill-rule="evenodd" clip-rule="evenodd" fill="#83BDD3" d="M41.508,159.472c1.448-3.203,4.831-3.192,7.66-4.247
		c-2.032-1.964-3.84-3.711-5.842-5.646c-2.369,3.779-3.223,7.923-7.935,9.705c-4.513,1.708-8.555,0.214-12.733-0.479
		c-1.579-3.713-0.271-5.979,3.691-6.548c4.904-0.704,5.288-1.129,5.516-5.704c0.324-6.499-0.587-12.907-1.94-19.243
		c-2.146-10.045-4.661-20.023-6.781-30.071c-0.784-3.716-0.898-7.55-1.308-11.331c-0.223-2.059-0.641-4.123-0.593-6.179
		c0.17-7.492,0.78-14.927,2.587-22.293c1.106-4.513,0.944-9.164-1.55-13.935c-1.946,0.556-3.861,0.979-5.666,1.648
		c-2.331,0.866-4.467,0.522-6.492-0.597c-3.402-1.882-6.747-3.853-9.879-5.65c-0.503-2.556-0.305-4.359,1.368-6.209
		c1.194-1.321,1.83-3.305,2.075-5.068c0.887-6.38,3.212-11.894,10.227-15.311C11.439,8.318,7.662,5.16,6.8,0
		c2.343,0.211,4.518,0.047,6.404,0.646c4.749,1.508,9.345,3.417,14.05,5.046c2.336,0.809,4.742,1.532,7.185,1.983
		c4.239,0.784,8.26,1.901,11.859,4.223c4.421,2.852,6.695,6.792,7.456,11.569c1.049,6.591,1.698,13.215,4.327,19.556
		c5.316,12.827,10.174,25.813,15.542,38.622c2.732,6.521,7.546,11.952,12.524,17.18c4.472,4.699,9.317,9.118,13.546,13.988
		c6.219,7.163,9.332,15.47,9.3,24.688c-0.002,0.806-0.095,1.611-0.167,2.416c-0.059,0.648-0.151,1.295-0.275,2.334
		c3.438,0.261,6.482-0.629,9.2-1.731c5.047-2.047,10.07-4.313,14.642-7.12c2.94-1.804,5.52-4.465,7.441-7.221
		c3.604-5.172,1.755-10.358-1.711-14.899c-3.96-5.188-8.564-9.891-13.561-14.355c-5.929-5.297-11.621-10.984-16.371-17.177
		c-4.699-6.126-6.785-13.378-5.029-21.047c1.211-5.298,5.189-8.883,9.652-12.021c4.731-3.328,10.36-4.784,16.108-5.501
		c4.97-0.619,10.05-0.858,15.063-0.718c4.871,0.137,9.762,0.749,14.564,1.554c5.577,0.935,7.781,3.835,7.413,8.808
		c-0.138,1.856-0.984,3.204-2.666,4.322c-4.837,3.219-10.13,3.087-15.55,1.945c-4.77-1.004-9.477-2.885-14.423-2.085
		c-3.643,0.59-7.382,1.616-10.599,3.245c-4.009,2.032-5.038,6.295-3.534,11.101c1.05,3.357,2.726,6.446,5.287,9.063
		c5.73,5.853,11.941,11.229,18.627,16.174c5.479,4.055,10.842,8.231,14.38,14.03c3.388,5.555,5.046,11.297,3.814,17.377
		c-0.348,1.823-0.641,3.203-2.068,6.513c-5.023,8.109-9.521,12.711-17.733,15.777c-6.832,2.553-14.257,3.66-21.743,4.065
		c-3.472,0.188-6.893,1.219-10.324,1.919c-0.582,0.117-1.27,0.374-1.62,0.776c-3.61,4.16-8.745,5.217-14.049,6.395
		c-5.63,1.25-11.25,1.076-16.899,1.115c-9.973,0.069-19.947-0.017-29.919,0.087C44.326,162.669,42.614,161.815,41.508,159.472z"/>
</g>
<g>
	<path fill="#FFFFFF" d="M214.346,153.688l-1.74-7.646h-0.633c-1.723,2.708-4.175,4.834-7.356,6.381
		c-3.182,1.547-6.812,2.32-10.89,2.32c-7.066,0-12.34-1.758-15.82-5.273c-3.48-3.515-5.221-8.841-5.221-15.979V95.364h12.498v35.965
		c0,4.465,0.914,7.813,2.742,10.046c1.828,2.233,4.693,3.349,8.596,3.349c5.203,0,9.026-1.556,11.47-4.667
		c2.443-3.111,3.665-8.323,3.665-15.636V95.364h12.445v58.324H214.346z"/>
	<path fill="#FFFFFF" d="M241.03,79.913c0-2.215,0.606-3.92,1.819-5.115c1.213-1.194,2.944-1.793,5.194-1.793
		c2.179,0,3.876,0.599,5.089,1.793c1.213,1.195,1.818,2.9,1.818,5.115c0,2.109-0.605,3.771-1.818,4.983s-2.91,1.819-5.089,1.819
		c-2.25,0-3.981-0.606-5.194-1.819S241.03,82.022,241.03,79.913z M254.16,153.688h-12.392V95.364h12.392V153.688z"/>
	<path fill="#FFFFFF" d="M293.605,144.724c3.023,0,6.047-0.475,9.07-1.424v9.334c-1.371,0.599-3.137,1.099-5.299,1.503
		c-2.162,0.403-4.404,0.606-6.725,0.606c-11.742,0-17.613-6.188-17.613-18.563v-31.43h-7.963v-5.484l8.543-4.535l4.219-12.34h7.646
		v12.973h16.611v9.387h-16.611v31.219c0,2.988,0.747,5.194,2.242,6.618C289.22,144.012,291.18,144.724,293.605,144.724z"/>
	<path fill="#FFFFFF" d="M339.801,154.743c-9.07,0-16.162-2.645-21.277-7.937c-5.115-5.291-7.674-12.577-7.674-21.858
		c0-9.526,2.373-17.015,7.119-22.465c4.746-5.449,11.268-8.174,19.564-8.174c7.699,0,13.781,2.339,18.246,7.014
		c4.465,4.676,6.697,11.109,6.697,19.301v6.697h-38.865c0.176,5.661,1.705,10.012,4.588,13.052
		c2.883,3.041,6.943,4.562,12.182,4.562c3.445,0,6.653-0.324,9.625-0.976c2.97-0.65,6.16-1.731,9.57-3.243v10.072
		c-3.023,1.442-6.082,2.461-9.176,3.059S343.773,154.743,339.801,154.743z M337.533,103.696c-3.938,0-7.092,1.248-9.465,3.744
		c-2.373,2.497-3.789,6.136-4.246,10.916h26.473c-0.07-4.816-1.23-8.464-3.48-10.942S341.471,103.696,337.533,103.696z"/>
	<path fill="#FFFFFF" d="M377.875,153.688V76.591h12.604v66.287h32.643v10.811H377.875z"/>
	<path fill="#FFFFFF" d="M434.354,79.913c0-2.215,0.606-3.92,1.819-5.115c1.213-1.194,2.944-1.793,5.194-1.793
		c2.18,0,3.876,0.599,5.089,1.793c1.213,1.195,1.819,2.9,1.819,5.115c0,2.109-0.606,3.771-1.819,4.983s-2.909,1.819-5.089,1.819
		c-2.25,0-3.981-0.606-5.194-1.819S434.354,82.022,434.354,79.913z M447.485,153.688h-12.393V95.364h12.393V153.688z"/>
	<path fill="#FFFFFF" d="M494.472,104.751h-14.238v48.938h-12.445v-48.938h-9.598V98.95l9.598-3.797v-3.797
		c0-6.89,1.616-11.997,4.852-15.319c3.234-3.322,8.174-4.983,14.818-4.983c4.358,0,8.648,0.721,12.867,2.162l-3.27,9.387
		c-3.059-0.983-5.978-1.477-8.754-1.477c-2.813,0-4.86,0.87-6.144,2.61c-1.284,1.74-1.925,4.351-1.925,7.831v3.797h14.238V104.751z"
		/>
	<path fill="#FFFFFF" d="M529.856,154.743c-9.07,0-16.163-2.645-21.278-7.937c-5.115-5.291-7.673-12.577-7.673-21.858
		c0-9.526,2.373-17.015,7.119-22.465c4.746-5.449,11.267-8.174,19.564-8.174c7.699,0,13.781,2.339,18.246,7.014
		c4.464,4.676,6.697,11.109,6.697,19.301v6.697h-38.865c0.176,5.661,1.705,10.012,4.588,13.052
		c2.882,3.041,6.942,4.562,12.182,4.562c3.445,0,6.652-0.324,9.624-0.976c2.971-0.65,6.161-1.731,9.571-3.243v10.072
		c-3.024,1.442-6.083,2.461-9.176,3.059C537.362,154.444,533.829,154.743,529.856,154.743z M527.589,103.696
		c-3.938,0-7.093,1.248-9.466,3.744c-2.373,2.497-3.789,6.136-4.245,10.916h26.473c-0.071-4.816-1.231-8.464-3.48-10.942
		C534.62,104.936,531.525,103.696,527.589,103.696z"/>
</g>
<g>
	<path fill="#FFFFFF" d="M550.305,85.902h-3.784V66.983h-6.429v-3.26h16.703v3.26h-6.49V85.902z M568.762,85.902l-6.184-17.196
		h-0.246l0.185,3.969v13.228h-3.661V63.724h5.753l6.029,17.195l6.245-17.195h5.537v22.179h-3.907v-12.92l0.185-4.214h-0.246
		l-6.49,17.134H568.762z"/>
</g>
</svg>
